<svg width="40" height="37" viewBox="0 0 40 37" fill="none" xmlns="http://www.w3.org/2000/svg">
<path d="M20 36.9498L17.95 35.0998C14.4167 31.8665 11.5 29.0748 9.2 26.7248C6.9 24.3748 5.06667 22.2748 3.7 20.4248C2.33333 18.5748 1.375 16.8998 0.825 15.3998C0.275 13.8998 0 12.3831 0 10.8498C0 7.8498 1.00833 5.34147 3.025 3.3248C5.04167 1.30814 7.53333 0.299805 10.5 0.299805C12.4 0.299805 14.1583 0.749805 15.775 1.6498C17.3917 2.5498 18.8 3.8498 20 5.5498C21.4 3.7498 22.8833 2.4248 24.45 1.5748C26.0167 0.724805 27.7 0.299805 29.5 0.299805C32.4667 0.299805 34.9583 1.30814 36.975 3.3248C38.9917 5.34147 40 7.8498 40 10.8498C40 12.3831 39.725 13.8998 39.175 15.3998C38.625 16.8998 37.6667 18.5748 36.3 20.4248C34.9333 22.2748 33.1 24.3748 30.8 26.7248C28.5 29.0748 25.5833 31.8665 22.05 35.0998L20 36.9498Z" fill="white"/>
</svg>
