<svg width="33" height="40" viewBox="0 0 33 40" fill="none" xmlns="http://www.w3.org/2000/svg">
<path d="M14.5089 1.99894V33.1555L3.92813 22.5748C3.74327 22.3857 3.52273 22.2353 3.27931 22.1321C3.03589 22.0289 2.77441 21.975 2.51002 21.9735C2.24563 21.9721 1.98358 22.0231 1.73903 22.1236C1.49449 22.2241 1.27232 22.3721 1.08538 22.5591C0.898435 22.7461 0.750442 22.9683 0.649968 23.2128C0.549493 23.4574 0.498528 23.7195 0.500031 23.9839C0.501534 24.2483 0.555474 24.5097 0.658722 24.7531C0.76197 24.9965 0.912477 25.217 1.10153 25.4019L15.0946 39.3949C15.4695 39.7697 15.9778 39.9802 16.5079 39.9802C17.038 39.9802 17.5463 39.7697 17.9212 39.3949L31.9143 25.4019C32.1003 25.2164 32.2478 24.9961 32.3483 24.7534C32.4488 24.5108 32.5004 24.2507 32.5 23.9881C32.4999 23.5928 32.3826 23.2064 32.163 22.8777C31.9433 22.549 31.6311 22.2929 31.2659 22.1416C30.9007 21.9904 30.4988 21.9508 30.1111 22.0279C29.7234 22.105 29.3673 22.2953 29.0877 22.5748L18.5069 33.1555V1.99894C18.5069 1.46877 18.2963 0.960314 17.9214 0.585427C17.5465 0.210539 17.0381 -6.86287e-05 16.5079 -6.86287e-05C15.9777 -6.86287e-05 15.4693 0.210539 15.0944 0.585427C14.7195 0.960314 14.5089 1.46877 14.5089 1.99894Z" fill="white"/>
</svg>
