<svg width="98" height="40" viewBox="0 0 98 40" fill="none" xmlns="http://www.w3.org/2000/svg">
<path d="M19.392 9.6C19.904 9.6 20.32 9.77067 20.64 10.112C20.96 10.4533 21.12 10.88 21.12 11.392V30.048C21.12 30.6027 20.928 31.072 20.544 31.456C20.1813 31.8187 19.7227 32 19.168 32C18.8907 32 18.6027 31.9573 18.304 31.872C18.0267 31.7653 17.8133 31.6267 17.664 31.456L5.088 15.488L5.92 14.976V30.208C5.92 30.72 5.74933 31.1467 5.408 31.488C5.088 31.8293 4.66133 32 4.128 32C3.616 32 3.2 31.8293 2.88 31.488C2.56 31.1467 2.4 30.72 2.4 30.208V11.552C2.4 10.9973 2.58133 10.5387 2.944 10.176C3.328 9.792 3.79733 9.6 4.352 9.6C4.65067 9.6 4.96 9.664 5.28 9.792C5.6 9.89867 5.83467 10.0693 5.984 10.304L18.176 25.856L17.632 26.24V11.392C17.632 10.88 17.792 10.4533 18.112 10.112C18.432 9.77067 18.8587 9.6 19.392 9.6ZM42.2193 23.456C42.2193 25.2053 41.8246 26.752 41.0353 28.096C40.2673 29.4187 39.2219 30.4533 37.8993 31.2C36.5979 31.9467 35.1366 32.32 33.5153 32.32C31.8939 32.32 30.4219 31.9467 29.0993 31.2C27.7979 30.4533 26.7526 29.4187 25.9633 28.096C25.1953 26.752 24.8113 25.2053 24.8113 23.456C24.8113 21.7067 25.1953 20.1707 25.9633 18.848C26.7526 17.504 27.7979 16.4587 29.0993 15.712C30.4219 14.944 31.8939 14.56 33.5153 14.56C35.1366 14.56 36.5979 14.944 37.8993 15.712C39.2219 16.4587 40.2673 17.504 41.0353 18.848C41.8246 20.1707 42.2193 21.7067 42.2193 23.456ZM38.3793 23.456C38.3793 22.368 38.1553 21.4293 37.7073 20.64C37.2806 19.8293 36.6939 19.2 35.9473 18.752C35.2219 18.304 34.4113 18.08 33.5153 18.08C32.6193 18.08 31.7979 18.304 31.0513 18.752C30.3259 19.2 29.7393 19.8293 29.2913 20.64C28.8646 21.4293 28.6513 22.368 28.6513 23.456C28.6513 24.5227 28.8646 25.4613 29.2913 26.272C29.7393 27.0613 30.3259 27.68 31.0513 28.128C31.7979 28.576 32.6193 28.8 33.5153 28.8C34.4113 28.8 35.2219 28.576 35.9473 28.128C36.6939 27.68 37.2806 27.0613 37.7073 26.272C38.1553 25.4613 38.3793 24.5227 38.3793 23.456ZM58.284 14.88C58.8387 14.88 59.2973 15.072 59.66 15.456C60.0227 15.8187 60.204 16.2773 60.204 16.832V24.96C60.204 27.2213 59.5747 29.0133 58.316 30.336C57.0573 31.6587 55.244 32.32 52.876 32.32C50.508 32.32 48.6947 31.6587 47.436 30.336C46.1987 29.0133 45.58 27.2213 45.58 24.96V16.832C45.58 16.2773 45.7613 15.8187 46.124 15.456C46.4867 15.072 46.9453 14.88 47.5 14.88C48.0547 14.88 48.5133 15.072 48.876 15.456C49.2387 15.8187 49.42 16.2773 49.42 16.832V24.96C49.42 26.2613 49.708 27.232 50.284 27.872C50.86 28.4907 51.724 28.8 52.876 28.8C54.0493 28.8 54.924 28.4907 55.5 27.872C56.076 27.232 56.364 26.2613 56.364 24.96V16.832C56.364 16.2773 56.5453 15.8187 56.908 15.456C57.2707 15.072 57.7293 14.88 58.284 14.88ZM71.9773 14.56C73.1933 14.56 74.2493 14.688 75.1453 14.944C76.0626 15.2 76.7666 15.5627 77.2573 16.032C77.7693 16.48 78.0253 17.024 78.0253 17.664C78.0253 18.0907 77.8973 18.496 77.6413 18.88C77.3853 19.2427 77.0119 19.424 76.5213 19.424C76.1799 19.424 75.8919 19.3813 75.6573 19.296C75.4439 19.1893 75.2519 19.0613 75.0813 18.912C74.9106 18.7627 74.7079 18.624 74.4733 18.496C74.2599 18.368 73.9293 18.272 73.4813 18.208C73.0546 18.1227 72.7346 18.08 72.5213 18.08C71.4333 18.08 70.5053 18.3147 69.7373 18.784C68.9906 19.2533 68.4146 19.8933 68.0093 20.704C67.6039 21.4933 67.4013 22.4107 67.4013 23.456C67.4013 24.48 67.6039 25.3973 68.0093 26.208C68.4359 26.9973 69.0119 27.6267 69.7373 28.096C70.4839 28.5653 71.3373 28.8 72.2973 28.8C72.8306 28.8 73.2893 28.768 73.6733 28.704C74.0573 28.64 74.3773 28.544 74.6333 28.416C74.9319 28.2453 75.1986 28.064 75.4333 27.872C75.6679 27.68 76.0199 27.584 76.4893 27.584C77.0439 27.584 77.4706 27.7653 77.7693 28.128C78.0679 28.4693 78.2173 28.896 78.2173 29.408C78.2173 29.9413 77.9186 30.432 77.3213 30.88C76.7239 31.3067 75.9346 31.6587 74.9533 31.936C73.9933 32.192 72.9479 32.32 71.8173 32.32C70.1319 32.32 68.6706 31.936 67.4333 31.168C66.1959 30.3787 65.2359 29.312 64.5533 27.968C63.8919 26.624 63.5613 25.12 63.5613 23.456C63.5613 21.7067 63.9133 20.1707 64.6173 18.848C65.3426 17.504 66.3346 16.4587 67.5933 15.712C68.8733 14.944 70.3346 14.56 71.9773 14.56ZM89.9783 14.56C91.5143 14.56 92.6769 14.8907 93.4663 15.552C94.2769 16.2133 94.8316 17.0987 95.1303 18.208C95.4289 19.296 95.5783 20.512 95.5783 21.856V30.048C95.5783 30.6027 95.3969 31.072 95.0343 31.456C94.6716 31.8187 94.2129 32 93.6583 32C93.1036 32 92.6449 31.8187 92.2823 31.456C91.9196 31.072 91.7383 30.6027 91.7383 30.048V21.856C91.7383 21.152 91.6529 20.5227 91.4823 19.968C91.3116 19.392 91.0023 18.9333 90.5543 18.592C90.1063 18.2507 89.4663 18.08 88.6343 18.08C87.8236 18.08 87.1303 18.2507 86.5543 18.592C85.9783 18.9333 85.5409 19.392 85.2423 19.968C84.9649 20.5227 84.8263 21.152 84.8263 21.856V30.048C84.8263 30.6027 84.6449 31.072 84.2823 31.456C83.9196 31.8187 83.4609 32 82.9062 32C82.3516 32 81.8929 31.8187 81.5303 31.456C81.1676 31.072 80.9863 30.6027 80.9863 30.048V10.272C80.9863 9.71733 81.1676 9.25867 81.5303 8.896C81.8929 8.512 82.3516 8.32 82.9062 8.32C83.4609 8.32 83.9196 8.512 84.2823 8.896C84.6449 9.25867 84.8263 9.71733 84.8263 10.272V18.208L84.3463 18.112C84.5383 17.7493 84.8049 17.3653 85.1463 16.96C85.4876 16.5333 85.9036 16.1387 86.3943 15.776C86.8849 15.4133 87.4289 15.1253 88.0263 14.912C88.6236 14.6773 89.2743 14.56 89.9783 14.56Z" fill="white"/>
<circle cx="33.5" cy="23.5" r="3.5" fill="#3887F3"/>
<circle cx="72.5" cy="23.5" r="3.5" fill="#3887F3"/>
</svg>
