<svg width="18" height="18" viewBox="0 0 18 18" fill="none" xmlns="http://www.w3.org/2000/svg">
<path d="M14 10.6666C13.5076 10.6699 13.0221 10.7821 12.5783 10.9954C12.1346 11.2086 11.7435 11.5176 11.4333 11.8999L7.18334 9.9416C7.38316 9.32972 7.38316 8.67014 7.18334 8.05827L11.4333 6.09993C11.9347 6.7049 12.6336 7.11333 13.4068 7.25313C14.18 7.39293 14.9777 7.25512 15.6591 6.86402C16.3406 6.47292 16.862 5.85366 17.1313 5.11555C17.4006 4.37744 17.4005 3.56792 17.1311 2.82986C16.8616 2.09179 16.3401 1.47264 15.6586 1.08166C14.9771 0.690677 14.1793 0.55301 13.4062 0.692952C12.6331 0.832894 11.9342 1.24145 11.4329 1.84651C10.9317 2.45157 10.6603 3.21425 10.6667 3.99993C10.6692 4.19846 10.6887 4.39641 10.725 4.5916L6.325 6.6166C5.8559 6.15791 5.26187 5.84786 4.61734 5.72529C3.97281 5.60272 3.30644 5.67307 2.70171 5.92754C2.09699 6.18201 1.58081 6.60928 1.21784 7.15582C0.854868 7.70235 0.661255 8.34385 0.661255 8.99993C0.661255 9.65602 0.854868 10.2975 1.21784 10.844C1.58081 11.3906 2.09699 11.8179 2.70171 12.0723C3.30644 12.3268 3.97281 12.3971 4.61734 12.2746C5.26187 12.152 5.8559 11.842 6.325 11.3833L10.725 13.4083C10.6887 13.6035 10.6692 13.8014 10.6667 13.9999C10.6667 14.6592 10.8622 15.3037 11.2284 15.8518C11.5947 16.4 12.1153 16.8272 12.7244 17.0795C13.3335 17.3318 14.0037 17.3978 14.6503 17.2692C15.2969 17.1406 15.8909 16.8231 16.357 16.357C16.8232 15.8908 17.1407 15.2968 17.2693 14.6502C17.3979 14.0036 17.3319 13.3334 17.0796 12.7243C16.8273 12.1152 16.4001 11.5946 15.8519 11.2284C15.3037 10.8621 14.6593 10.6666 14 10.6666ZM14 2.33327C14.3296 2.33327 14.6519 2.43101 14.926 2.61415C15.2 2.79729 15.4137 3.05758 15.5398 3.36213C15.6659 3.66667 15.699 4.00178 15.6346 4.32508C15.5703 4.64838 15.4116 4.94536 15.1785 5.17844C14.9454 5.41153 14.6485 5.57027 14.3252 5.63457C14.0019 5.69888 13.6667 5.66588 13.3622 5.53973C13.0577 5.41359 12.7974 5.19996 12.6142 4.92588C12.4311 4.6518 12.3333 4.32957 12.3333 3.99993C12.3333 3.55791 12.5089 3.13398 12.8215 2.82142C13.1341 2.50886 13.558 2.33327 14 2.33327V2.33327ZM4 10.6666C3.67037 10.6666 3.34813 10.5689 3.07405 10.3857C2.79997 10.2026 2.58635 9.94228 2.4602 9.63774C2.33406 9.33319 2.30105 8.99808 2.36536 8.67478C2.42967 8.35148 2.5884 8.05451 2.82149 7.82142C3.05458 7.58833 3.35155 7.4296 3.67485 7.36529C3.99815 7.30098 4.33327 7.33399 4.63781 7.46013C4.94235 7.58628 5.20265 7.7999 5.38579 8.07398C5.56892 8.34806 5.66667 8.6703 5.66667 8.99993C5.66667 9.44196 5.49108 9.86588 5.17851 10.1784C4.86595 10.491 4.44203 10.6666 4 10.6666ZM14 15.6666C13.6704 15.6666 13.3481 15.5689 13.0741 15.3857C12.8 15.2026 12.5864 14.9423 12.4602 14.6377C12.3341 14.3332 12.3011 13.9981 12.3654 13.6748C12.4297 13.3515 12.5884 13.0545 12.8215 12.8214C13.0546 12.5883 13.3516 12.4296 13.6749 12.3653C13.9982 12.301 14.3333 12.334 14.6378 12.4601C14.9424 12.5863 15.2027 12.7999 15.3858 13.074C15.5689 13.3481 15.6667 13.6703 15.6667 13.9999C15.6667 14.442 15.4911 14.8659 15.1785 15.1784C14.866 15.491 14.442 15.6666 14 15.6666Z" fill="#F5F9FF"/>
</svg>
