<svg width="24" height="24" viewBox="0 0 24 24" fill="none" xmlns="http://www.w3.org/2000/svg">
<g clip-path="url(#clip0_85_977)">
<path d="M12 24C18.6274 24 24 18.6274 24 12C24 5.37258 18.6274 0 12 0C5.37258 0 0 5.37258 0 12C0 18.6274 5.37258 24 12 24Z" fill="#2DAAE1"/>
<path d="M19.6946 7.22688C19.1286 7.47804 18.5206 7.64784 17.8814 7.72416C18.5338 7.33351 19.0336 6.71449 19.2695 5.97774C18.6498 6.3458 17.9716 6.60491 17.2644 6.74382C16.6888 6.13034 15.8681 5.74731 14.9601 5.74731C13.2172 5.74731 11.8038 7.16022 11.8038 8.90411C11.8038 9.1512 11.8316 9.39226 11.8851 9.6237C9.26144 9.49184 6.93539 8.23508 5.37845 6.32543C5.10659 6.79182 4.95097 7.33409 4.95097 7.91265C4.95097 9.00773 5.50835 9.97392 6.35528 10.5399C5.85391 10.5244 5.36355 10.389 4.92518 10.1452V10.1851C4.92518 11.7148 6.01317 12.9902 7.4574 13.2803C7.1921 13.353 6.91368 13.391 6.62564 13.391C6.42198 13.391 6.2244 13.3717 6.03138 13.3354C6.43311 14.5891 7.59896 15.5017 8.97996 15.5275C7.89955 16.3745 6.53819 16.8793 5.05961 16.8793C4.80494 16.8793 4.55324 16.8641 4.30615 16.8343C5.70341 17.7303 7.36242 18.2533 9.14523 18.2533C14.9515 18.2533 18.127 13.443 18.127 9.27153C18.127 9.13457 18.124 8.99864 18.1174 8.8632C18.7361 8.4157 19.2702 7.86161 19.6946 7.22688Z" fill="white"/>
</g>
<defs>
<clipPath id="clip0_85_977">
<rect width="24" height="24" fill="white"/>
</clipPath>
</defs>
</svg>
